<svg width="165" height="165" viewBox="0 0 165 165" fill="none" xmlns="http://www.w3.org/2000/svg">
<circle cx="82.5" cy="82.5" r="68" fill="#C0FF11" stroke="black" stroke-width="29"/>
<path d="M107.32 25.8254L97.0752 22.1672C96.1083 21.8219 95.4573 21.3417 95.122 20.7264C94.7779 20.108 94.7393 19.4252 95.006 18.6781C95.0782 18.476 95.1872 18.2819 95.3328 18.0961C95.4697 17.9071 95.6298 17.7363 95.8131 17.5838C95.9933 17.44 96.1891 17.3216 96.4007 17.2287C96.6091 17.1446 96.8154 17.0943 97.0194 17.078C96.7488 16.8922 96.5407 16.6841 96.395 16.4537C96.2374 16.2289 96.1316 15.9979 96.0776 15.7606C96.0117 15.5289 95.9885 15.3026 96.0079 15.0816C96.0274 14.8606 96.0669 14.6666 96.1265 14.4996C96.2866 14.0513 96.4894 13.6777 96.7349 13.3789C96.9803 13.08 97.2889 12.8681 97.6606 12.7431C98.0322 12.6182 98.4758 12.5833 98.9912 12.6386C99.4979 12.6906 100.094 12.8391 100.78 13.0839L110.615 16.5962L107.32 25.8254ZM106.556 17.9713L100.61 15.8479C100.232 15.713 99.9752 15.6559 99.8389 15.6766C99.6939 15.6942 99.5884 15.7952 99.5225 15.9798C99.4597 16.1556 99.4789 16.2963 99.58 16.4017C99.6723 16.5041 99.9074 16.6227 100.285 16.7577L106.232 18.881L106.556 17.9713ZM105.379 21.2675L99.7628 19.2618C99.3849 19.1268 99.1278 19.0697 98.9915 19.0904C98.8465 19.108 98.741 19.2091 98.6751 19.3937C98.6123 19.5695 98.6315 19.7101 98.7326 19.8156C98.8249 19.9179 99.06 20.0366 99.4379 20.1715L105.055 22.1772L105.379 21.2675Z" fill="white"/>
<path d="M84.2111 13.156L84.6269 10.5287L97.556 12.5748L96.0242 22.2544L92.7055 21.7292L93.8215 14.6769L84.2111 13.156Z" fill="white"/>
<path d="M69.0419 11.5799L72.8618 11.4515L73.8626 12.8886L81.2225 12.6412L82.1105 11.1405L85.9304 11.0121L79.9492 21.0187L75.6816 21.1622L69.0419 11.5799ZM79.698 15.2139L75.5564 15.3531L77.7354 18.5017L79.698 15.2139Z" fill="white"/>
<path d="M68.6246 17.5573C68.5513 17.2485 68.4448 16.962 68.3053 16.6978C68.1567 16.4357 67.9521 16.2205 67.6915 16.0522C67.433 15.8929 67.1116 15.7918 66.7272 15.7488C66.3429 15.7058 65.8692 15.7512 65.3062 15.885L62.4867 16.5548C61.7239 16.736 61.1687 16.983 60.8209 17.2959C60.4662 17.62 60.2613 18.0092 60.2061 18.4636L56.8281 19.2661C56.7938 18.7179 56.8432 18.1785 56.9762 17.6481C57.1113 17.1267 57.3513 16.6428 57.6961 16.1964C58.0319 15.7521 58.4837 15.3521 59.0515 14.9966C59.6125 14.6523 60.3061 14.382 61.1324 14.1857L65.4639 13.1566C66.4355 12.9258 67.2886 12.8623 68.0231 12.966C68.7486 13.0718 69.3719 13.2931 69.8932 13.6297C70.4166 13.9754 70.8437 14.4207 71.1746 14.9657C71.4965 15.5128 71.7351 16.1132 71.8904 16.767C72.0457 17.4208 72.1027 18.0644 72.0613 18.6978C72.013 19.3424 71.8339 19.9414 71.524 20.4946C71.2164 21.057 70.7624 21.5486 70.162 21.9694C69.5548 22.4014 68.7653 22.7329 67.7937 22.9637L63.4623 23.9927C62.6632 24.1825 61.9402 24.2488 61.2935 24.1914C60.6376 24.1361 60.0598 23.9856 59.5602 23.7398C59.0535 23.5052 58.6192 23.1911 58.2571 22.7975C57.8971 22.4129 57.6068 21.9782 57.3861 21.4935L60.8049 20.6812C61.0771 21.0195 61.4368 21.241 61.8838 21.3459C62.3217 21.4529 62.8948 21.4223 63.6031 21.254L66.4226 20.5842C66.9856 20.4504 67.428 20.2734 67.7498 20.053C68.0737 19.8418 68.3142 19.6024 68.4713 19.3348C68.6284 19.0673 68.7133 18.7785 68.726 18.4685C68.7317 18.1697 68.698 17.866 68.6246 17.5573Z" fill="white"/>
<path d="M47.7011 30.8696L52.3723 23.8424L43.0193 22.2341L47.986 19.9662L55.0906 21.2007L53.3984 17.4948L56.4549 16.0991L60.5255 25.0138L57.469 26.4094L56.1025 23.4166L52.6551 28.6075L47.7011 30.8696Z" fill="white"/>
<path d="M41.012 33.6856L40.1094 32.6153L33.5059 38.1839L31.8814 36.2574L38.4849 30.6888L36.4091 28.2272L38.9777 26.0612L45.2954 33.553L35.4597 41.8472L33.7449 39.8137L41.012 33.6856Z" fill="white"/>
<path d="M37.354 40.7027L30.9565 48.4742C30.6896 48.7985 30.3915 49.1092 30.0623 49.4063C29.7343 49.7166 29.3855 49.9494 29.016 50.1045C28.6406 50.2669 28.2519 50.3278 27.8502 50.2872C27.4425 50.2538 27.0224 50.0592 26.5901 49.7032C26.4099 49.5549 26.2368 49.3761 26.0706 49.1668C25.9057 48.9706 25.7717 48.7515 25.6687 48.5096C25.5657 48.2676 25.5044 48.0116 25.4848 47.7417C25.4725 47.4776 25.5222 47.2043 25.6341 46.9216C25.1645 47.1395 24.7583 47.2584 24.4155 47.2784C24.0739 47.3116 23.769 47.2781 23.5007 47.1782C23.2337 47.0913 22.9891 46.9626 22.767 46.7918C22.5462 46.6342 22.3217 46.4736 22.0937 46.3101C21.8729 46.1524 21.6372 46.0129 21.3867 45.8913C21.1375 45.7828 20.8444 45.735 20.5075 45.7478L22.6252 43.1753C22.7667 43.0621 22.9231 43.0337 23.0943 43.09C23.2668 43.1595 23.4484 43.2546 23.6392 43.3753C23.8299 43.4961 24.0315 43.6257 24.2438 43.7643C24.4574 43.916 24.6797 44.0204 24.9107 44.0776C25.1358 44.1419 25.3676 44.1393 25.6062 44.0698C25.8388 44.0074 26.0768 43.8286 26.32 43.5331L30.0037 39.0583L27.6258 37.1008L29.7879 34.4743L37.354 40.7027ZM31.8412 40.5709L28.0863 45.1322C27.8371 45.4349 27.6965 45.6938 27.6643 45.9091C27.6334 46.1376 27.7405 46.3526 27.9855 46.5543C28.1296 46.6729 28.2657 46.7426 28.3936 46.7634C28.5216 46.7841 28.6428 46.7691 28.7573 46.7182C28.8789 46.6732 28.9944 46.599 29.1037 46.4956C29.2071 46.3994 29.3122 46.2864 29.4189 46.1567L33.1382 41.6387L31.8412 40.5709Z" fill="white"/>
<path d="M30.1839 50.2617L28.4462 53.1374L20.0585 48.0692L21.7962 45.1934L30.1839 50.2617Z" fill="white"/>
<path d="M27.126 55.5042L23.414 64.4377C23.038 65.3427 22.5925 66.0621 22.0775 66.5961C21.5712 67.1336 21.027 67.5189 20.4449 67.7521C19.8629 67.9853 19.2585 68.0778 18.6317 68.0296C18.0013 67.99 17.3801 67.8431 16.7682 67.5888C16.1562 67.3345 15.6138 66.998 15.141 66.5792C14.6732 66.1725 14.3167 65.6807 14.0713 65.1037C13.8345 64.5303 13.728 63.8746 13.7517 63.1365C13.784 62.402 13.9881 61.5823 14.3642 60.6773L18.0762 51.7438L27.126 55.5042ZM23.4062 57.5971L19.2045 55.8512L17.0772 60.9708C16.8624 61.4879 16.735 61.9404 16.6952 62.3281C16.664 62.7194 16.702 63.0536 16.8092 63.3306C16.9165 63.6076 17.079 63.8369 17.2967 64.0183C17.5194 64.2119 17.7773 64.3696 18.0704 64.4914C18.3634 64.6131 18.6528 64.6829 18.9386 64.7005C19.2294 64.7304 19.5108 64.6856 19.7827 64.5662C20.0547 64.4467 20.3184 64.2379 20.5737 63.9397C20.829 63.6415 21.0641 63.2338 21.2789 62.7167L23.4062 57.5971Z" fill="white"/>
<path d="M10.1654 80.4323L10.9029 76.6821L12.529 76.0317L13.9499 68.8061L12.6886 67.602L13.4261 63.8519L21.8235 71.9382L20.9996 76.128L10.1654 80.4323ZM16.1119 70.8721L15.3123 74.9382L18.8716 73.5264L16.1119 70.8721Z" fill="white"/>
<path d="M11.0114 87.4718L11.0236 84.1118L14.2436 84.1235L20.8463 77.8473L20.8305 82.2293L17.0375 85.8136L20.8044 89.4252L20.7887 93.7932L14.2594 87.4836L11.0114 87.4718Z" fill="white"/>
<path d="M18.6558 96.9845L19.8259 101.93L17.3872 102.507L16.2172 97.5615L18.6558 96.9845Z" fill="white"/>
<path d="M25.9404 108.003L30.894 117.688C31.3615 118.602 31.5065 119.398 31.3291 120.076C31.1558 120.762 30.7161 121.285 30.0098 121.647C29.8187 121.744 29.6064 121.811 29.373 121.847C29.1438 121.89 28.9102 121.905 28.6721 121.891C28.4424 121.872 28.2186 121.824 28.0008 121.746C27.7914 121.665 27.6068 121.56 27.447 121.432C27.5167 121.753 27.5256 122.047 27.4738 122.315C27.4346 122.586 27.3533 122.827 27.23 123.037C27.1192 123.251 26.9811 123.432 26.8154 123.579C26.6498 123.727 26.4881 123.841 26.3302 123.922C25.9064 124.139 25.5027 124.272 25.1192 124.321C24.7356 124.371 24.3657 124.313 24.0094 124.15C23.6531 123.986 23.3061 123.707 22.9686 123.314C22.6353 122.929 22.3029 122.412 21.9714 121.764L17.2155 112.466L25.9404 108.003ZM21.1137 114.246L23.989 119.867C24.1717 120.224 24.3198 120.442 24.4332 120.521C24.5509 120.607 24.697 120.606 24.8715 120.517C25.0377 120.432 25.1201 120.316 25.1188 120.17C25.1217 120.032 25.0318 119.785 24.849 119.427L21.9738 113.806L21.1137 114.246ZM24.2298 112.652L26.9456 117.962C27.1284 118.319 27.2765 118.537 27.3899 118.615C27.5076 118.702 27.6537 118.7 27.8282 118.611C27.9943 118.526 28.0768 118.411 28.0754 118.265C28.0783 118.127 27.9884 117.879 27.8057 117.522L25.0898 112.212L24.2298 112.652Z" fill="white"/>
<path d="M34.0869 133.066L31.9836 134.694L23.9702 124.344L31.7192 118.345L33.7761 121.001L28.1304 125.372L34.0869 133.066Z" fill="white"/>
<path d="M44.0538 144.609L41.184 142.085L41.44 140.353L35.9106 135.489L34.2354 135.973L31.3656 133.449L42.579 130.261L45.7852 133.081L44.0538 144.609ZM38.7838 134.66L41.8955 137.397L42.4663 133.611L38.7838 134.66Z" fill="white"/>
<path d="M48.4541 140.542C48.296 140.817 48.1771 141.099 48.0977 141.387C48.0263 141.68 48.0278 141.977 48.1023 142.278C48.1814 142.571 48.3461 142.865 48.5966 143.16C48.847 143.454 49.2231 143.746 49.7247 144.034L52.2371 145.479C52.9168 145.869 53.4904 146.07 53.9581 146.081C54.4385 146.088 54.8545 145.945 55.206 145.651L58.216 147.382C57.8653 147.805 57.4598 148.164 56.9994 148.459C56.5437 148.746 56.0373 148.934 55.4802 149.023C54.9312 149.116 54.3281 149.098 53.6709 148.968C53.0265 148.834 52.3361 148.555 51.5998 148.132L47.7402 145.913C46.8744 145.415 46.2096 144.877 45.7457 144.298C45.29 143.724 44.9876 143.136 44.8387 142.533C44.6945 141.923 44.6886 141.306 44.821 140.682C44.9616 140.063 45.1993 139.462 45.5342 138.88C45.8692 138.297 46.2688 137.789 46.733 137.357C47.2099 136.92 47.7508 136.607 48.3556 136.416C48.965 136.217 49.6326 136.171 50.3581 136.276C51.0965 136.377 51.8985 136.677 52.7643 137.174L56.6239 139.393C57.3359 139.803 57.9078 140.25 58.3395 140.735C58.7792 141.225 59.0969 141.73 59.2923 142.252C59.5005 142.77 59.6015 143.296 59.5955 143.831C59.5941 144.358 59.5077 144.873 59.3361 145.378L56.2897 143.626C56.3233 143.193 56.2132 142.785 55.9596 142.403C55.714 142.025 55.2756 141.654 54.6445 141.291L52.1321 139.847C51.6304 139.559 51.1869 139.384 50.8016 139.324C50.4209 139.256 50.0817 139.266 49.7839 139.353C49.4862 139.44 49.2265 139.592 49.0048 139.809C48.7958 140.023 48.6123 140.267 48.4541 140.542Z" fill="white"/>
<path d="M72.8148 145.186L64.5972 147.103L70.3064 154.684L65.1352 152.932L60.8072 147.164L59.4998 151.022L56.3175 149.944L59.4624 140.662L62.6447 141.741L61.5889 144.857L67.6568 143.439L72.8148 145.186Z" fill="white"/>
<path d="M79.616 147.72L79.5398 149.118L88.165 149.588L88.0278 152.104L79.4026 151.634L79.2274 154.849L75.8724 154.666L76.4057 144.881L89.2526 145.581L89.1079 148.237L79.616 147.72Z" fill="white"/>
<path d="M87.0888 145.116L97.0737 143.841C97.4903 143.788 97.9203 143.766 98.3638 143.775C98.8152 143.774 99.2287 143.843 99.6042 143.984C99.9889 144.123 100.314 144.345 100.578 144.649C100.852 144.953 101.025 145.383 101.096 145.938C101.125 146.17 101.129 146.419 101.107 146.685C101.092 146.941 101.04 147.192 100.949 147.439C100.858 147.686 100.727 147.914 100.556 148.124C100.385 148.325 100.161 148.49 99.8858 148.619C100.377 148.782 100.754 148.974 101.018 149.194C101.289 149.404 101.488 149.638 101.615 149.894C101.75 150.141 101.84 150.402 101.885 150.678C101.938 150.945 101.991 151.215 102.045 151.491C102.098 151.757 102.174 152.02 102.273 152.28C102.38 152.53 102.561 152.766 102.815 152.987L99.5097 153.409C99.329 153.395 99.1957 153.308 99.1096 153.15C99.0316 152.981 98.9645 152.788 98.9083 152.569C98.8522 152.35 98.7942 152.118 98.7345 151.871C98.6829 151.614 98.5926 151.386 98.4635 151.186C98.3438 150.985 98.1732 150.828 97.9517 150.715C97.7396 150.601 97.4437 150.568 97.0641 150.617L91.3148 151.351L91.7051 154.406L88.3305 154.837L87.0888 145.116ZM91.0133 148.99L96.8737 148.242C97.2625 148.192 97.5424 148.1 97.7134 147.965C97.8925 147.82 97.9619 147.59 97.9217 147.275C97.898 147.09 97.8467 146.946 97.7677 146.843C97.6887 146.74 97.5901 146.668 97.4719 146.627C97.3525 146.576 97.2176 146.551 97.0671 146.552C96.9259 146.551 96.7719 146.561 96.6053 146.582L90.8004 147.324L91.0133 148.99Z" fill="white"/>
<path d="M98.8613 143.069L102.098 142.165L104.733 151.604L101.496 152.508L98.8613 143.069Z" fill="white"/>
<path d="M104.681 141.346L113.506 137.384C114.4 136.983 115.218 136.764 115.959 136.728C116.696 136.684 117.356 136.776 117.94 137.005C118.524 137.234 119.027 137.581 119.451 138.046C119.883 138.507 120.234 139.039 120.506 139.644C120.777 140.249 120.941 140.865 120.999 141.494C121.061 142.111 120.983 142.714 120.767 143.302C120.546 143.882 120.174 144.432 119.651 144.954C119.124 145.466 118.414 145.923 117.52 146.325L108.695 150.287L104.681 141.346ZM108.824 142.371L110.688 146.522L115.745 144.252C116.256 144.022 116.659 143.78 116.954 143.525C117.245 143.262 117.446 142.992 117.558 142.717C117.669 142.442 117.708 142.163 117.674 141.882C117.644 141.588 117.565 141.297 117.435 141.007C117.305 140.718 117.142 140.469 116.946 140.26C116.754 140.039 116.519 139.879 116.239 139.779C115.959 139.68 115.624 139.651 115.234 139.694C114.843 139.736 114.393 139.872 113.882 140.101L108.824 142.371Z" fill="white"/>
<path d="M134.116 134.815L131.009 137.041L129.379 136.401L123.392 140.689L123.486 142.43L120.379 144.656L119.805 133.012L123.276 130.525L134.116 134.815ZM123.234 137.703L126.603 135.289L123.043 133.878L123.234 137.703Z" fill="white"/>
<path d="M138.324 129.109L136.013 131.548L133.676 129.333L124.566 129.378L127.581 126.198L132.799 126.187L132.531 120.975L135.536 117.805L135.967 126.875L138.324 129.109Z" fill="white"/>
<path d="M139.276 116.943L141.813 112.539L143.984 113.79L141.447 118.194L139.276 116.943Z" fill="white"/>
<path d="M141.522 103.926L144.552 93.4787C144.838 92.4926 145.277 91.8136 145.871 91.4416C146.467 91.0606 147.147 90.9805 147.909 91.2015C148.115 91.2613 148.315 91.3582 148.509 91.4923C148.706 91.6174 148.886 91.7669 149.05 91.9406C149.204 92.1117 149.334 92.3 149.44 92.5056C149.537 92.7085 149.599 92.9113 149.628 93.114C149.797 92.8326 149.992 92.6122 150.213 92.4528C150.428 92.2819 150.652 92.1623 150.886 92.094C151.113 92.0141 151.338 91.9771 151.559 91.9831C151.781 91.9891 151.977 92.0168 152.147 92.0662C152.605 92.1988 152.99 92.3785 153.303 92.6054C153.616 92.8322 153.847 93.1274 153.994 93.4908C154.141 93.8542 154.203 94.2948 154.179 94.8126C154.158 95.3215 154.046 95.9256 153.843 96.6248L150.934 106.656L141.522 103.926ZM149.315 102.688L151.074 96.6235C151.186 96.2381 151.227 95.978 151.198 95.8432C151.172 95.6995 151.064 95.6004 150.876 95.5458C150.697 95.4938 150.558 95.5215 150.458 95.6288C150.362 95.7271 150.258 95.969 150.146 96.3545L148.388 102.419L149.315 102.688ZM145.954 101.713L147.615 95.9849C147.727 95.5995 147.768 95.3394 147.739 95.2046C147.713 95.0609 147.605 94.9618 147.417 94.9072C147.238 94.8552 147.099 94.8829 146.999 94.9902C146.903 95.0885 146.799 95.3304 146.687 95.7159L145.026 101.444L145.954 101.713Z" fill="white"/>
<path d="M152.765 80.0912L155.413 80.3467L154.155 93.3762L144.401 92.4348L144.723 89.0904L151.83 89.7762L152.765 80.0912Z" fill="white"/>
<path d="M153.417 64.8543L153.777 68.6593L152.404 69.7455L153.098 77.0768L154.649 77.8721L155.009 81.6771L144.658 76.3145L144.256 72.0635L153.417 64.8543ZM150.437 75.7114L150.047 71.5858L147.036 73.952L150.437 75.7114Z" fill="white"/>
<path d="M147.426 64.8006C147.729 64.7087 148.009 64.585 148.264 64.4297C148.517 64.2655 148.719 64.0482 148.871 63.7778C149.015 63.5102 149.096 63.1832 149.116 62.797C149.135 62.4107 149.061 61.9407 148.893 61.3868L148.054 58.6132C147.826 57.8628 147.546 57.3236 147.213 56.9954C146.868 56.6611 146.467 56.4801 146.01 56.4527L145.004 53.1297C145.549 53.0621 146.09 53.0786 146.628 53.1792C147.156 53.2824 147.654 53.4926 148.121 53.8097C148.584 54.1178 149.011 54.5445 149.4 55.0897C149.778 55.6287 150.09 56.3047 150.336 57.1176L151.626 61.3785C151.916 62.3344 152.031 63.182 151.972 63.9215C151.91 64.652 151.727 65.2876 151.423 65.8284C151.11 66.3718 150.691 66.8252 150.167 67.1886C149.641 67.5431 149.056 67.8177 148.413 68.0124C147.77 68.2071 147.131 68.3031 146.496 68.3002C145.849 68.2911 145.241 68.1487 144.67 67.873C144.09 67.6001 143.571 67.1767 143.115 66.6031C142.647 66.0232 142.268 65.2553 141.979 64.2995L140.689 60.0385C140.451 59.2524 140.341 58.5349 140.359 57.8858C140.374 57.2278 140.489 56.6419 140.704 56.1282C140.908 55.6083 141.195 55.1557 141.566 54.7703C141.928 54.3877 142.344 54.0715 142.814 53.8218L143.833 57.185C143.512 57.4773 143.312 57.8497 143.235 58.3022C143.154 58.7458 143.22 59.316 143.431 60.0128L144.271 62.7865C144.438 63.3403 144.642 63.7711 144.881 64.0789C145.112 64.3894 145.365 64.615 145.642 64.7555C145.919 64.8961 146.212 64.9633 146.522 64.9571C146.821 64.9447 147.122 64.8926 147.426 64.8006Z" fill="white"/>
<path d="M132.868 44.724L140.165 48.9599L141.203 39.5265L143.768 44.3463L142.967 51.5128L146.564 49.5987L148.142 52.5648L139.491 57.1691L137.913 54.203L140.817 52.6573L135.426 49.5315L132.868 44.724Z" fill="white"/>
<path d="M129.651 38.2182L130.664 37.2523L124.705 30.9991L126.529 29.2606L132.488 35.5138L134.819 33.2924L137.137 35.7248L130.043 42.4856L121.167 33.1717L123.093 31.3366L129.651 38.2182Z" fill="white"/>
<path d="M122.424 34.993L114.279 29.0791C113.939 28.8324 113.611 28.5537 113.294 28.2431C112.964 27.9346 112.711 27.6006 112.534 27.2412C112.349 26.8763 112.264 26.4921 112.281 26.0886C112.289 25.6796 112.458 25.2485 112.787 24.7954C112.924 24.6065 113.092 24.4228 113.291 24.2443C113.477 24.0678 113.687 23.9207 113.922 23.8032C114.158 23.6857 114.409 23.609 114.678 23.5731C114.941 23.5447 115.216 23.5778 115.505 23.6722C115.259 23.2168 115.116 22.8186 115.075 22.4776C115.021 22.1386 115.036 21.8322 115.12 21.5584C115.19 21.2866 115.304 21.0346 115.461 20.8026C115.605 20.5726 115.751 20.3388 115.901 20.1013C116.045 19.8713 116.17 19.6276 116.276 19.3702C116.369 19.1148 116.399 18.8194 116.366 18.4839L119.062 20.4414C119.184 20.5758 119.222 20.7302 119.176 20.9045C119.117 21.0809 119.033 21.268 118.924 21.4657C118.815 21.6634 118.698 21.8725 118.572 22.0928C118.434 22.3153 118.343 22.5435 118.3 22.7775C118.25 23.0061 118.266 23.2373 118.35 23.4713C118.427 23.6997 118.62 23.9263 118.929 24.1512L123.619 27.5564L125.429 25.064L128.182 27.0627L122.424 34.993ZM122.221 29.4823L117.44 26.0113C117.123 25.781 116.856 25.6563 116.639 25.6373C116.409 25.6203 116.201 25.7402 116.015 25.997C115.905 26.1481 115.844 26.2881 115.831 26.4171C115.818 26.5461 115.84 26.6662 115.898 26.7773C115.95 26.896 116.031 27.0067 116.141 27.1096C116.244 27.2069 116.363 27.305 116.499 27.4037L121.234 30.8418L122.221 29.4823Z" fill="white"/>
<path d="M112.448 28.4164L109.472 26.8565L114.021 18.1766L116.997 19.7365L112.448 28.4164Z" fill="white"/>
<path d="M107.029 25.6825L97.8868 22.5197C96.9607 22.1993 96.2155 21.7983 95.6513 21.3167C95.084 20.844 94.6663 20.3242 94.3983 19.7574C94.1302 19.1906 94.0011 18.5929 94.0112 17.9643C94.0125 17.3327 94.1214 16.7037 94.3381 16.0775C94.5547 15.4512 94.8577 14.8894 95.247 14.392C95.6245 13.9004 96.0938 13.5146 96.6548 13.2347C97.2128 12.9635 97.8608 12.8174 98.599 12.7962C99.3341 12.7839 100.165 12.9379 101.091 13.2583L110.233 16.4211L107.029 25.6825ZM104.714 22.0967L106.202 17.7967L100.963 15.9842C100.433 15.8011 99.974 15.7014 99.5846 15.6852C99.1921 15.6778 98.8609 15.7361 98.5909 15.8599C98.3209 15.9838 98.1019 16.1599 97.9341 16.3882C97.7543 16.6223 97.6126 16.8893 97.5088 17.1892C97.4051 17.4891 97.3531 17.7822 97.3528 18.0685C97.3406 18.3606 97.4024 18.6387 97.5381 18.903C97.6739 19.1672 97.8983 19.4177 98.2115 19.6544C98.5246 19.8911 98.9458 20.101 99.475 20.2841L104.714 22.0967Z" fill="white"/>
<path d="M81.1173 10.2667L84.9054 10.7752L85.6533 12.3587L92.9519 13.3384L94.0771 12.0062L97.8651 12.5147L90.3036 21.3876L86.0715 20.8196L81.1173 10.2667ZM91.021 15.6218L86.9138 15.0705L88.539 18.5375L91.021 15.6218Z" fill="white"/>
<path d="M74.1422 11.5385L77.4967 11.3467L77.6806 14.5614L84.3461 20.7709L79.9712 21.0211L76.1633 17.4528L72.787 21.4321L68.4261 21.6815L74.3277 14.7812L74.1422 11.5385Z" fill="white"/>
<path d="M65.1112 19.7464L60.2459 21.2146L59.5219 18.8154L64.3872 17.3473L65.1112 19.7464Z" fill="white"/>
<path d="M62.3337 90.3331L62.3333 66.3334L67.6667 66.3333L67.667 84.9997L94.7917 85L84.2592 74.4674L88.0304 70.6962L105.001 87.6667L88.0304 104.637L84.2592 100.866L94.792 90.3333L62.3337 90.3331Z" fill="black"/>
</svg>
